<?xml version="1.0" encoding="UTF-8"?>
<svg version="1.1" viewBox="0 0 1024 1024" width="1280" height="1280" xmlns="http://www.w3.org/2000/svg">
<path transform="translate(0)" d="m0 0h1024v1024h-1024z" fill="#EBFEFA"/>
<path transform="translate(705,349)" d="m0 0 18 2 15 5 16 8 10 7 15 14 4 5-38 38-4-2-12-13-11-7-8-3h-14l-8 4-5 5-3 7v10l4 8 1 3 20 10 27 12 17 9 13 10v2l3 1 8 11 7 15 3 14v20l-4 15-8 16-8 10-10 9-9 6-11 5-9 3-12 2h-25l-16-3-15-6-12-7-10-8-8-7v-2h-2l-7-8v-3l8-7 29-29 5 5 10 11 10 7 10 4 4 1h12l11-4 7-6 3-6 1-11-3-8-4-6-10-7-13-6-24-10-15-8-11-8v-2l-4-2-8-10-8-16-3-13v-20l3-15 4-9 7-12 5-6h2v-2h2l1-3 10-7 9-5 11-4 8-2z" fill="#15362A"/>
<path transform="translate(444,349)" d="m0 0h137v51h-84v47h60v51h-60v112h-53z" fill="#15362A"/>
<path transform="translate(336,349)" d="m0 0h52v196l-4 15-8 16-7 9-5 6-13 9-15 7-17 3h-20l-18-3-15-6-12-7-11-9-7-7 6-7 8-8 8-7 16-16 4 2 7 7 11 7 8 2h11l9-3 6-5 4-8 1-5v-187z" fill="#15362A"/>
<path transform="translate(260,287)" d="m0 0h503l5 5-2 5-5 3h-500l-5-3-1-4 3-5z" fill="#15362A"/>
<path transform="translate(259,656)" d="m0 0h505l4 4-1 5-3 3h-504l-5-5 2-5z" fill="#15362A"/>
<path transform="translate(384,691)" d="m0 0h8l8 4 5 6 2 6-1 9-5 8-6 4-3 1h-8l-7-3-5-4-4-9v-7l4-8 6-5z" fill="#15362A"/>
<path transform="translate(668,691)" d="m0 0h7l8 3 6 7 1 3v11l-3 6-8 7-4 1h-7l-7-3-5-4-3-5-1-10 3-8 7-6z" fill="#15362A"/>
<path transform="translate(276,691)" d="m0 0h7l10 19 3 4 13-23h7v38h-8l-1-18-10 17h-3l-10-17-1 18h-7z" fill="#15362A"/>
<path transform="translate(419,692)" d="m0 0h20l6 4 2 4v9l-4 5-2 2 7 11v2h-9l-7-11-5-1v12h-8z" fill="#15362A"/>
<path transform="translate(702,692)" d="m0 0h19l6 4 3 5-1 9-5 6 7 11v2h-9l-6-9-2-2h-4l-1 11h-7z" fill="#15362A"/>
<path transform="translate(527,692)" d="m0 0h27v8h-18v8h16v7h-16v6h18v9h-26l-1-1z" fill="#15362A"/>
<path transform="translate(614,692)" d="m0 0h19l6 4 3 7-1 8-5 5-3 2-11 1v10h-8z" fill="#15362A"/>
<path transform="translate(330,691)" d="m0 0 19 1 5 3 3 4 1 7-3 7-5 4-3 1h-9v11h-8z" fill="#15362A"/>
<path transform="translate(566,691)" d="m0 0h10l8 11 7-10h9l-2 5-7 10-1 3 11 18v1h-9l-7-10-1-2-7 10-1 2h-10l8-14 3-4-1-4-9-13z" fill="#15362A"/>
<path transform="translate(740,692)" d="m0 0h30v8h-11v29h-8v-29h-11z" fill="#15362A"/>
<path transform="translate(458,692)" d="m0 0h30v8h-11v29h-8v-29h-11z" fill="#15362A"/>
<path transform="translate(669,699)" d="m0 0 7 1 5 5 1 2v6l-4 6-7 2-7-3-3-4v-9l5-5z" fill="#EBFEFA"/>
<path transform="translate(383,700)" d="m0 0h9l5 4 1 2v8l-4 5-3 1h-7l-5-3-2-4v-7l4-5z" fill="#EBFEFA"/>
<path transform="translate(253,692)" d="m0 0h8v37h-8z" fill="#15362A"/>
<path transform="translate(622,700)" d="m0 0h8l3 2v6l-2 2h-9z" fill="#EBFEFA"/>
<path transform="translate(338,700)" d="m0 0h8l3 2v6l-2 2h-9z" fill="#EBFEFA"/>
<path transform="translate(710,700)" d="m0 0h8l3 2v6l-3 2h-8z" fill="#EBFEFA"/>
<path transform="translate(427,700)" d="m0 0h9l2 1 1 4-2 4h-10z" fill="#EBFEFA"/>
</svg>
